# xmcd CD database file
#
# Track frame offsets:
#	182
#	22027
#	44957
#	67100
#	89125
#	111580
#	133185
#	154687
#	176445
#	197355
#	219155
#	240340
#	258125
#
# Disc length: 3708 seconds
#
# Revision: 0
# Processed by: cddbd v1.5.2PL0 Copyright (c) Steve Scherf et al.
# Submitted via: CDex 1.50
#
DISCID=bc0e7a0d
DTITLE=Servando y Florentino - Los Primera
DYEAR=1997
DGENRE=Salsa
TTITLE0=Fan Enamorada (Version Salsa)
TTITLE1=Con Ella No
TTITLE2=Tengo Un Corazon
TTITLE3=Por Haberte Querido Tanto
TTITLE4=Me Enamore
TTITLE5=Antonio
TTITLE6=Hermanos Primera
TTITLE7=Aliviame
TTITLE8=Primer Amor
TTITLE9=Estas Hecha Para Mi
TTITLE10=Fan Enamorada (Version Balada)
TTITLE11=Aliviame
TTITLE12=Pero Como OIvidar
EXTD=YEAR: 1997
EXTT0=
EXTT1=
EXTT2=
EXTT3=
EXTT4=
EXTT5=
EXTT6=
EXTT7=
EXTT8=
EXTT9=
EXTT10=
EXTT11=
EXTT12=
PLAYORDER=
